<svg width="86" height="88" viewBox="0 0 86 88" fill="none" xmlns="http://www.w3.org/2000/svg">
<rect width="86" height="88" rx="16" fill="#8C78FC"/>
<path d="M17.305 21.4126C17.305 21.4126 36.1143 16.4136 39.3292 24.6203C44.0488 36.6679 41.9512 68.0316 41.9512 68.0316C41.9512 68.0316 38.344 65.0693 35.6586 63.8412C28.5829 60.6053 18.2226 66.4595 17.3049 59.1268C15.7317 46.5554 17.305 21.4126 17.305 21.4126Z" fill="white"/>
<path d="M69.2195 21.7227C69.2195 21.7227 49.3613 16.1999 46.1464 24.4067C41.4268 36.4543 44.5732 68.3417 44.5732 68.3417C44.5732 68.3417 48.1805 65.3794 50.8659 64.1513C57.9415 60.9154 68.3018 66.7696 69.2195 59.4369C70.7927 46.8655 69.2195 21.7227 69.2195 21.7227Z" fill="white"/>
</svg>
